# xmcd CD database file
#
# Track frame offsets:
#	150
#	21172
#	43840
#	70677
#	96755
#	118937
#	141357
#	166047
#	189920
#	214712
#
# Disc length: 3115 seconds
#
# Revision: 0
# Processed by: cddbd v1.5.2PL0 Copyright (c) Steve Scherf et al.
# Submitted via: NeoAudio 9.9.9
#
DISCID=880c290a
DTITLE=Grupo Niche - Solamente Tu
DYEAR=2001
DGENRE=Salsa
TTITLE0=Dominicana
TTITLE1=Entrega
TTITLE2=Gotas De Lluvia
TTITLE3=La Negra No Quiere
TTITLE4=Sin Sentimientos
TTITLE5=Solamente Tu
TTITLE6=Mexico Mexico
TTITLE7=Una Aventura
TTITLE8=Etnia
TTITLE9=Una Rosa
EXTD=YEAR: 2001
EXTT0=
EXTT1=
EXTT2=
EXTT3=
EXTT4=
EXTT5=
EXTT6=
EXTT7=
EXTT8=
EXTT9=
PLAYORDER=
